# xmcd
#
# Track frame offsets:
#	150
#	5565
#	17249
#	18517
#	32995
#	46890
#	66051
#	67817
#	87414
#	88816
#	103257
#	123169
#	146340
#	161672
#	174504
#	175293
#	188334
#	204708
#	226622
#	246239
#
# Disc length: 3550 seconds
#
# Revision: 1
# Processed by: cddbd v1.5.2PL0 Copyright (c) Steve Scherf et al.
# Submitted via: audiograbber 1.83.01
#
DISCID=060ddc14
DTITLE=Jonny Hill - Mein Herz für Tiere
DYEAR=1900
DGENRE=Country Deutsch
TTITLE0=Liebe Tierfreunde
TTITLE1=Professor Einstein (Neuaufnahme - kurze Version)
TTITLE2=Mein Sonnenschein
TTITLE3=Nuri
TTITLE4=Nicht jeder weint mit Tränen
TTITLE5=Kinder, alte Hunde und junger herber Wein
TTITLE6=Drafi Deutscher, der Tierfreund
TTITLE7=Ich hatte niemals einen Freund wie mein Pferd
TTITLE8=Familienmitglieder
TTITLE9=Wenn der Briefträger klingelt
TTITLE10=Luna, die Königin der Nacht
TTITLE11=Tommy und Strolch
TTITLE12=Nur ein Augenblick Mut
TTITLE13=Mein bester Freund
TTITLE14=Schwein muss man haben
TTITLE15=Der Schweinetango
TTITLE16=Professor Einstein
TTITLE17=Ruf Teddybär 1-4
TTITLE18=Hallo Teddybär (Neuaufnahme)
TTITLE19=Teddybär, ich danke dir
EXTD=
EXTT0=
EXTT1=
EXTT2=
EXTT3=
EXTT4=
EXTT5=
EXTT6=
EXTT7=
EXTT8=
EXTT9=
EXTT10=
EXTT11=
EXTT12=
EXTT13=
EXTT14=
EXTT15=
EXTT16=
EXTT17=
EXTT18=
EXTT19=
PLAYORDER=
